<svg width="126" height="28" viewBox="0 0 126 28" fill="none" xmlns="http://www.w3.org/2000/svg">
<path d="M9.34519 4.05733C4.18407 4.05733 0 8.2397 0 13.3987C0 18.5577 4.18407 22.7401 9.34519 22.7401V28C9.34519 28 18.6904 24.6741 18.6904 13.3983C18.6904 8.23925 14.5063 4.05688 9.34519 4.05688V4.05733ZM4.86056 13.2633C4.86056 10.7876 6.86848 8.78049 9.34519 8.78049C11.8219 8.78049 13.8298 10.7876 13.8298 13.2633C13.8298 15.739 11.8219 17.7461 9.34519 17.7461C6.86848 17.7461 4.86056 15.739 4.86056 13.2633Z" fill="#F8BE00"/>
<path d="M28.6254 21.9328C33.4084 21.9328 37.2829 18.0599 37.2829 13.2789C37.2829 10.4243 35.9017 7.89519 33.7753 6.31901C32.3331 5.25222 30.5526 4.62085 28.6259 4.62085C26.6992 4.62085 24.9142 5.25223 23.4764 6.32305C21.3456 7.89519 19.9644 10.4238 19.9644 13.2789C19.9644 18.0599 23.8429 21.9328 28.6259 21.9328H28.6254ZM28.625 8.74045C31.1318 8.74045 33.1639 10.7718 33.1639 13.2775C33.1639 15.7833 31.1318 17.8146 28.625 17.8146C26.1182 17.8146 24.0861 15.7833 24.0861 13.2775C24.0861 10.7718 26.1182 8.74045 28.625 8.74045Z" fill="#F8BE00"/>
<path d="M47.0993 21.9328C51.8823 21.9328 55.7568 18.0599 55.7568 13.2789C55.7568 10.4243 54.3756 7.89519 52.2492 6.31901C50.807 5.25222 49.0265 4.62085 47.0998 4.62085C45.173 4.62085 43.3881 5.25223 41.9503 6.32305C39.8195 7.89519 38.4382 10.4238 38.4382 13.2789C38.4382 18.0599 42.3168 21.9328 47.0998 21.9328H47.0993ZM47.0989 8.74045C49.6056 8.74045 51.6378 10.7718 51.6378 13.2775C51.6378 15.7833 49.6056 17.8146 47.0989 17.8146C44.5921 17.8146 42.5599 15.7833 42.5599 13.2775C42.5599 10.7718 44.5921 8.74045 47.0989 8.74045Z" fill="#F8BE00"/>
<path d="M86.981 11.239V22.1122H92.4233V5.79565L86.981 11.2385V11.239Z" fill="white"/>
<path d="M71.6938 5.78809L77.143 0.359131C77.143 0.359131 77.1434 13.947 77.1434 13.9506C77.1434 15.4492 78.3587 16.6635 79.8579 16.6635C80.6075 16.6635 85.3016 16.6653 85.3016 16.6653V22.1109H79.8579C75.3553 22.1109 71.7046 18.4675 71.6947 13.969H71.6943V5.78764L71.6938 5.78809Z" fill="white"/>
<path d="M57.2122 5.78809L62.6613 0.359131C62.6613 0.359131 62.6617 13.947 62.6617 13.9506C62.6617 15.4492 63.877 16.6635 65.3762 16.6635C66.1258 16.6635 70.8199 16.6653 70.8199 16.6653V22.1109H65.3762C60.8736 22.1109 57.2229 18.4675 57.2131 13.969H57.2126V5.78764L57.2122 5.78809Z" fill="#F8BE00"/>
<path d="M104.078 22.4001V11.9422C104.078 10.3333 103.306 9.69654 101.864 9.69654C100.423 9.69654 99.4836 10.3333 99.4836 11.9422V22.4001H94.1184V5.90877H99.2154V7.65176C100.121 6.14329 101.663 5.4729 103.809 5.4729C107.129 5.4729 109.476 7.65176 109.476 10.4674V22.4001H104.078Z" fill="white"/>
<path d="M115.658 15.1157C115.784 17.0699 116.983 18.4882 118.717 18.4882C119.852 18.4882 120.892 17.9524 121.113 17.1331H125.811C124.865 20.3164 122.28 22.1128 118.938 22.1128C113.704 22.1128 111.087 19.2761 111.087 13.666C111.087 8.87556 113.861 5.78687 118.654 5.78687C123.446 5.78687 126 8.71816 126 14.4543V15.1162H115.658V15.1157ZM121.428 12.3737C121.302 10.3248 120.167 9.41096 118.59 9.41096C117.014 9.41096 115.91 10.4195 115.753 12.3737H121.428Z" fill="white"/>
<path d="M92.4163 0H86.9888V5.42538" fill="#F8BE00"/>
</svg>
